PathFileType	4	(X/Y/Z)	Kaydara	
DataRate	CameraRate	NumFrames	NumMarkers	Units	OrigDataRate	OrigDataStartFrame	OrigNumFrames	
60.00	60.00	4	74	mm	60.00	213	201	
Frame#	Time	N_lasi			N_rasi			N_rpsi			N_lpsi			N_fneck			N_bneck			N_fhead			N_rhead			N_lhead			N_rshld			N_relbtop			N_relbext			N_relblow			N_rwrext			N_rwrtop			N_rwrlow			N_lshld			N_lelbext			N_lelblow			N_lelbtop			N_lwrext			N_lwrtop			N_lwrlow			N_rtopleg			N_ltopleg			N_rkneefr			N_rkneebk			N_rkneeis			N_lkneefr			N_lknssbk			N_lkneeis			N_rankfr			N_rankis			N_rankbk			N_lankfr			N_lankbk			N_lankis			D_lasi			D_rasi			D_rpsi			D_lpsi			D_fneck			D_bneck			D_fhead			D_rhead			D_lhead			D_rshld			D_relbtop			D_relbext			D_relblow			D_rwrext			D_rwrtop			D_rwrlow			D_lshld			D_lelbext			D_lelblow			D_lelbtop			D_lwrext			D_lwrtop			D_lwrlow			D_rtopleg			D_ltopleg			D_rkneefr			D_rkneebk			D_rkneeis			D_lkneefr			D_lknssbk			D_lkneeis			D_rankfr			D_rankis			D_rankbk			D_lankfr			D_lankbk			D_lankis			
		X1	Y1	Z1	X2	Y2	Z2	X3	Y3	Z3	X4	Y4	Z4	X5	Y5	Z5	X6	Y6	Z6	X7	Y7	Z7	X8	Y8	Z8	X9	Y9	Z9	X10	Y10	Z10	X11	Y11	Z11	X12	Y12	Z12	X13	Y13	Z13	X14	Y14	Z14	X15	Y15	Z15	X16	Y16	Z16	X17	Y17	Z17	X18	Y18	Z18	X19	Y19	Z19	X20	Y20	Z20	X21	Y21	Z21	X22	Y22	Z22	X23	Y23	Z23	X24	Y24	Z24	X25	Y25	Z25	X26	Y26	Z26	X27	Y27	Z27	X28	Y28	Z28	X29	Y29	Z29	X30	Y30	Z30	X31	Y31	Z31	X32	Y32	Z32	X33	Y33	Z33	X34	Y34	Z34	X35	Y35	Z35	X36	Y36	Z36	X37	Y37	Z37	X38	Y38	Z38	X39	Y39	Z39	X40	Y40	Z40	X41	Y41	Z41	X42	Y42	Z42	X43	Y43	Z43	X44	Y44	Z44	X45	Y45	Z45	X46	Y46	Z46	X47	Y47	Z47	X48	Y48	Z48	X49	Y49	Z49	X50	Y50	Z50	X51	Y51	Z51	X52	Y52	Z52	X53	Y53	Z53	X54	Y54	Z54	X55	Y55	Z55	X56	Y56	Z56	X57	Y57	Z57	X58	Y58	Z58	X59	Y59	Z59	X60	Y60	Z60	X61	Y61	Z61	X62	Y62	Z62	X63	Y63	Z63	X64	Y64	Z64	X65	Y65	Z65	X66	Y66	Z66	X67	Y67	Z67	X68	Y68	Z68	X69	Y69	Z69	X70	Y70	Z70	X71	Y71	Z71	X72	Y72	Z72	X73	Y73	Z73	X74	Y74	Z74	

26	3.533	-844.90692	1103.27484	-250.03092	-906.35796	1128.01910	-492.90630	-650.76019	1196.83716	-606.78154	-564.39026	1186.06857	-267.96125	-780.83710	1554.93484	-512.51923	-732.75421	1653.77686	-413.68195	-913.13492	1688.83209	-232.49748	-834.52278	1752.24701	-409.12434	-754.22760	1733.84903	-275.55521	-846.40686	1503.95462	-624.99477	-864.16405	1208.88123	-755.55237	-964.09752	1176.19370	-753.99559	-919.79485	1223.99658	-686.46889	-1002.44659	938.32405	-644.82841	-1015.42831	959.65675	-603.54481	-976.96060	959.39484	-575.07053	-595.46082	1509.43649	-193.37660	-567.02599	1159.39995	-237.18904	-595.36610	1177.81242	-127.56993	-516.58798	1181.05164	-165.03704	-571.24630	882.62337	-131.57100	-618.15838	872.76138	-129.00102	-623.81054	881.66267	-181.34806	-809.18251	994.23515	-642.26517	-601.94908	1017.77466	-212.18416	-858.97491	505.85770	-621.85558	-724.86778	564.92043	-648.10738	-773.83209	516.09810	-518.20694	-822.96242	524.59507	-309.80679	-688.31223	533.27763	-303.61763	-747.74773	531.52630	-433.18413	-539.75578	235.14977	-698.14667	-537.62539	231.44411	-616.28567	-466.44775	268.81996	-644.36455	-768.20129	169.14997	-369.25068	-685.96718	169.52686	-380.28046	-750.40703	180.10347	-443.19134	166.83535	1038.05344	1061.17699	389.43050	1053.61229	1238.97369	228.51700	1158.08708	1356.26984	61.28198	1137.36946	1220.47211	284.82523	1531.49231	1087.68913	238.71687	1614.93668	1190.05219	324.35425	1692.53021	964.17122	354.35608	1731.36200	1140.83298	207.73012	1737.27280	1090.99060	437.28004	1488.95233	1257.46025	443.84048	1164.04190	1388.00232	401.50131	1156.08681	1326.05988	503.93181	1182.92778	1326.14349	519.84928	929.10240	1317.72842	545.25261	940.47935	1265.53398	494.42062	946.49521	1245.59746	39.21897	1499.61914	1093.89664	18.61732	1172.85568	1137.67326	-47.91825	1210.75035	1075.11734	-61.08105	1185.67093	1151.67091	-51.74119	951.16501	1039.83658	-24.26442	962.92709	1006.84624	21.73253	967.67914	1028.07564	381.97456	1005.53566	1341.85822	37.51746	1009.11598	1136.63002	392.70512	486.12572	1210.92812	363.52737	489.31881	1317.75589	264.01140	469.95041	1242.18575	52.50287	458.41396	1036.66664	5.87223	520.73498	1128.59032	118.86893	454.61353	1115.51292	378.86650	134.58491	1250.63477	311.28496	134.19584	1239.10477	334.71767	127.68335	1319.53796	-28.48299	205.68098	1270.03754	-52.14052	242.91475	1330.89264	25.60008	212.30810	1308.57361 
27	3.550	-850.63416	1104.50638	-242.17705	-915.89783	1131.00266	-485.16556	-661.32271	1199.32343	-600.53932	-570.37430	1187.40486	-263.07419	-788.07716	1557.43958	-505.58708	-739.99428	1656.28159	-406.74980	-917.82310	1691.58569	-223.07182	-841.56349	1755.07843	-400.46124	-758.63274	1736.34216	-267.80659	-855.50400	1505.95886	-617.67059	-872.38174	1210.40634	-747.15302	-972.65312	1177.73087	-745.92232	-928.68843	1225.54596	-678.72139	-1011.50711	939.88029	-638.28934	-1024.81613	961.11984	-597.05521	-986.70120	960.65865	-567.96955	-600.60280	1511.64383	-187.93056	-573.97770	1162.13417	-230.25314	-602.77222	1180.21690	-120.25174	-523.50891	1182.72644	-157.37272	-582.62707	884.79889	-124.29260	-629.59248	875.60455	-121.80730	-635.33512	884.88693	-174.09327	-822.73346	998.74512	-635.75798	-604.96220	1018.04710	-208.27259	-886.24901	512.41093	-611.85181	-751.52710	569.63428	-640.56305	-798.70270	521.97651	-509.55486	-822.67776	523.97533	-308.06246	-688.01842	533.90442	-303.13440	-749.28978	532.23923	-431.99699	-567.07127	242.19793	-693.50197	-563.56937	238.24820	-611.22978	-493.20045	275.77608	-640.86388	-767.51442	169.29945	-368.69938	-685.40604	169.55982	-380.41348	-750.67841	180.28605	-442.85152	178.15453	1039.97047	1054.41574	398.44524	1054.46480	1234.66583	237.11222	1159.41544	1351.14655	70.26311	1139.85954	1212.27287	293.76841	1533.25958	1081.37360	247.63199	1616.34201	1183.96172	331.55891	1694.74472	957.76077	362.15656	1733.78281	1134.95964	215.28252	1738.46802	1085.37071	446.40850	1491.14685	1251.62743	454.67587	1166.43967	1382.20490	411.65558	1158.47794	1320.90240	514.07509	1185.51476	1319.89655	530.82417	931.87943	1310.46829	555.80452	943.65860	1258.29887	504.93305	949.51874	1238.64471	48.34146	1501.15784	1088.45703	28.56033	1174.61746	1132.20169	-38.91306	1212.23801	1070.79414	-51.11185	1187.06253	1147.19887	-42.46122	952.54509	1035.87486	-15.86826	964.58694	1002.33894	30.61691	969.40437	1022.61780	388.84052	1005.59288	1337.95670	47.32321	1011.52138	1127.35489	392.04063	485.58018	1209.13727	364.47697	489.41151	1316.44058	263.71969	470.32215	1241.70418	75.56224	462.01199	1015.03670	24.92187	522.45758	1106.00746	139.88668	459.54102	1095.97908	378.41053	134.47055	1249.66789	310.62178	134.08462	1238.44582	334.38023	127.71399	1318.30353	-4.16189	208.35653	1247.89711	-30.91148	245.52710	1309.25171	48.22263	217.00083	1289.32617 
28	3.567	-856.67686	1105.57541	-234.43642	-925.78537	1133.49266	-477.55455	-672.34192	1202.18643	-594.32884	-576.73157	1188.64822	-258.27871	-795.41405	1559.92599	-498.53294	-747.33116	1658.76801	-399.69566	-922.98622	1694.11163	-213.34684	-848.56522	1757.90710	-391.90773	-764.48387	1738.50769	-260.58842	-864.84619	1507.93777	-609.93969	-880.94421	1211.99387	-738.70300	-981.34689	1179.22462	-737.61581	-937.51350	1226.94557	-670.55878	-1020.27756	940.77927	-632.53075	-1034.01672	962.05139	-591.35704	-996.21437	961.19789	-561.97235	-605.71281	1513.71979	-182.58190	-581.15082	1164.84451	-223.55877	-610.34962	1182.70126	-113.22386	-530.70148	1184.27383	-149.90109	-593.97388	886.94786	-117.14103	-641.23962	878.74260	-114.25802	-646.99905	888.20328	-166.50841	-836.09673	1002.47627	-627.83306	-607.97535	1018.31955	-204.36100	-912.68822	519.32411	-600.67822	-777.45285	573.78368	-631.30493	-822.53815	527.30492	-500.02647	-822.22160	523.53447	-306.78263	-687.66296	534.59179	-303.29334	-750.51788	533.40668	-431.82373	-596.86790	246.31598	-688.40164	-593.55145	240.68132	-606.85192	-521.80840	279.16290	-637.10625	-766.69495	169.59347	-368.30765	-684.19113	170.41927	-380.80891	-751.02585	180.53724	-442.69146	188.33309	1041.93588	1047.79518	406.66348	1054.74594	1230.32738	244.68451	1160.48401	1343.63861	78.75614	1142.37038	1204.42284	302.38510	1534.79355	1074.54491	256.45834	1617.54395	1177.53723	338.52234	1696.75247	951.13083	369.80659	1735.91187	1127.72865	222.81303	1739.34601	1079.49112	455.53192	1493.05634	1244.94957	465.17639	1168.24997	1375.85892	421.86348	1160.47607	1314.57611	524.15192	1187.89452	1313.05222	541.46709	934.27032	1302.17499	566.18439	946.45264	1249.83093	515.16491	952.37236	1230.52650	57.10478	1502.44461	1082.62283	38.16817	1176.03798	1126.73218	-30.25890	1213.43773	1066.30188	-41.36748	1188.57803	1143.14514	-33.91303	953.52135	1032.35245	-8.32588	965.73509	998.07594	38.58722	970.64903	1017.06902	395.51792	1005.52414	1333.25348	56.55859	1014.25484	1118.04245	391.58329	485.08530	1207.19948	365.49587	489.55711	1314.94431	263.55917	470.83763	1241.54381	99.37721	466.67500	993.51120	45.13515	524.09027	1084.50111	161.70465	464.19380	1076.29234	378.18310	134.38261	1248.86032	310.12539	134.01535	1237.99057	334.29020	127.61938	1317.08572	20.38524	209.97307	1225.26413	-8.60290	246.39738	1286.10748	71.79352	219.94043	1268.26134 
29	3.583	-863.04611	1106.96648	-226.60488	-935.88348	1135.66917	-469.76944	-683.58337	1204.94278	-588.24894	-582.72587	1190.03220	-253.79803	-802.91962	1562.16553	-491.55632	-754.83673	1661.00739	-392.71904	-928.00476	1696.76163	-204.42476	-855.50285	1760.39551	-383.53943	-770.13672	1740.76813	-253.09511	-874.51553	1509.73557	-602.10514	-889.90898	1213.69011	-730.26428	-990.27031	1180.62729	-729.17213	-946.39557	1228.05481	-662.10983	-1028.74756	941.19949	-627.66518	-1043.01834	962.16637	-586.50459	-1005.51552	961.10031	-556.68209	-610.86830	1515.87555	-177.37316	-588.27118	1167.54494	-217.16732	-617.63229	1185.18661	-106.59554	-538.08319	1185.80009	-142.63572	-605.56274	889.13841	-109.78916	-652.90970	881.79718	-106.41559	-659.20303	891.53648	-158.50335	-849.86374	1005.77393	-620.07561	-611.92841	1018.86353	-201.38369	-938.08296	526.09032	-587.91798	-802.89146	577.62119	-621.58371	-844.85359	532.22042	-489.47140	-821.73767	523.17657	-305.80549	-687.36061	535.60841	-304.02826	-751.70288	534.91131	-432.30331	-629.16061	247.37640	-682.68974	-624.03851	242.28136	-602.55718	-551.37329	279.09550	-633.83862	-766.03157	169.80698	-368.06335	-684.72061	170.52952	-382.85603	-751.54510	180.86683	-442.59293	197.55966	1044.06776	1040.51224	414.80213	1054.59953	1224.25995	252.75061	1160.75775	1336.56631	86.73454	1144.68346	1197.06375	310.88692	1536.07788	1067.53380	264.91480	1618.61938	1170.84602	345.04002	1698.51715	944.04335	377.53296	1737.65411	1120.76591	229.98728	1740.12619	1073.44727	464.68899	1494.56772	1237.52983	475.54794	1169.60945	1368.60336	431.80569	1162.15996	1307.65060	534.02458	1189.73099	1305.55237	551.76003	936.34621	1292.78549	576.24844	948.94753	1240.33913	525.09418	954.91051	1221.40350	65.71822	1503.50204	1076.46103	47.35950	1177.09595	1121.18614	-22.00166	1214.31778	1061.76804	-31.99008	1189.51805	1138.65379	-26.15697	954.38698	1029.08699	-1.54831	966.50826	993.87032	45.88126	971.41449	1011.72241	402.18307	1005.17433	1327.44034	64.75305	1017.01065	1109.51706	391.93626	484.33586	1205.61470	366.72062	489.77654	1313.39233	264.19024	471.32919	1240.81970	123.34347	472.08092	972.79137	65.74420	525.85869	1064.02962	184.72040	468.77563	1055.95940	378.28156	134.34436	1248.19595	309.83393	134.10155	1237.60223	334.36634	127.74434	1316.89301	46.29404	209.85041	1201.07666	14.82725	245.12701	1261.50742	96.28402	220.90466	1245.54268 
